<?xml version="1.0" standalone="no"?>
<!DOCTYPE svg PUBLIC "-//W3C//DTD SVG 20010904//EN"
 "http://www.w3.org/TR/2001/REC-SVG-20010904/DTD/svg10.dtd">
<svg version="1.0" xmlns="http://www.w3.org/2000/svg"
 width="512.000000pt" height="512.000000pt" viewBox="0 0 512.000000 512.000000"
 preserveAspectRatio="xMidYMid meet">

<g transform="translate(0.000000,512.000000) scale(0.100000,-0.100000)"
fill="#000000" stroke="none">
<path d="M2511 4309 c-201 -34 -350 -244 -313 -441 24 -128 102 -233 212 -285
l59 -28 0 -92 1 -93 -470 0 c-505 0 -519 -1 -554 -51 -13 -20 -16 -53 -16
-200 l0 -177 -63 -29 c-294 -138 -294 -562 1 -699 l62 -29 0 -97 0 -98 -480 0
c-532 0 -523 1 -554 -64 -13 -28 -16 -69 -16 -218 l0 -183 -57 -24 c-72 -32
-151 -109 -189 -186 -26 -54 -29 -70 -29 -160 0 -91 3 -106 31 -165 141 -297
556 -298 701 -3 25 53 28 68 28 163 0 99 -2 110 -33 172 -38 78 -119 158 -187
183 l-45 18 0 123 0 124 415 0 415 0 0 -119 0 -120 -63 -30 c-154 -73 -246
-250 -217 -413 15 -83 62 -169 121 -222 197 -178 493 -118 612 124 29 59 32
73 32 160 0 85 -3 102 -31 160 -38 81 -106 150 -184 187 l-59 28 0 331 -1 331
46 18 c58 22 152 109 186 172 104 194 27 432 -172 533 l-61 31 3 102 3 102
410 0 410 0 3 -102 3 -101 -55 -25 c-78 -36 -150 -107 -189 -186 -30 -61 -32
-73 -32 -166 0 -88 3 -107 27 -157 37 -80 107 -152 187 -191 61 -30 73 -32
166 -32 93 0 105 2 166 32 80 39 150 111 187 191 24 50 27 69 27 162 0 96 -3
110 -29 162 -39 78 -108 145 -184 181 l-63 29 3 102 3 101 410 0 410 0 3 -102
3 -102 -58 -27 c-77 -37 -147 -109 -186 -192 -28 -59 -31 -77 -32 -157 0 -81
3 -97 32 -157 42 -88 101 -151 179 -189 l64 -32 0 -98 0 -99 -475 0 c-522 0
-519 0 -550 -60 -12 -23 -15 -69 -15 -217 l0 -188 -56 -24 c-76 -33 -147 -105
-187 -188 -28 -61 -32 -77 -32 -158 1 -116 26 -184 100 -263 221 -239 612
-119 665 205 12 72 -2 158 -38 231 -32 66 -125 154 -186 177 l-46 18 0 123 0
124 410 0 410 0 0 -124 0 -123 -45 -18 c-62 -23 -145 -102 -182 -172 -127
-238 15 -521 284 -565 163 -27 328 63 406 222 29 59 32 73 32 160 0 88 -3 101
-33 162 -41 84 -105 148 -182 185 l-59 28 0 123 -1 122 410 0 410 0 0 -123 0
-124 -52 -24 c-73 -34 -143 -106 -181 -186 -29 -62 -32 -77 -32 -163 0 -82 4
-103 27 -153 116 -249 437 -309 628 -117 191 190 136 510 -106 625 l-54 26 0
180 c0 201 -8 237 -59 263 -26 14 -94 16 -511 16 l-480 0 0 99 0 98 64 32 c76
37 147 110 184 189 24 50 27 69 27 162 0 97 -2 110 -30 164 -39 78 -110 148
-185 183 l-60 27 0 169 c0 133 -3 174 -16 198 -30 58 -37 59 -554 59 l-470 0
0 94 0 93 48 18 c69 27 173 133 200 207 29 76 36 142 23 210 -30 162 -155 288
-315 317 -33 6 -64 10 -70 10 -6 -1 -35 -5 -65 -10z m146 -237 c119 -64 113
-231 -10 -291 -55 -27 -82 -26 -137 2 -67 33 -93 78 -88 152 4 70 29 113 80
138 43 21 115 21 155 -1z m-1042 -1365 c45 -25 85 -92 85 -142 0 -41 -38 -114
-72 -139 -41 -29 -125 -33 -175 -8 -121 62 -114 242 12 298 45 20 105 17 150
-9z m1044 3 c106 -53 116 -212 19 -282 -47 -33 -149 -33 -196 0 -44 32 -66 77
-66 137 -1 126 129 204 243 145z m1028 9 c126 -47 143 -227 28 -294 -99 -58
-214 -14 -246 95 -39 129 91 247 218 199z m-3134 -1413 c95 -39 131 -171 70
-255 -32 -43 -101 -73 -153 -67 -91 12 -150 79 -150 171 0 121 119 199 233
151z m1054 -2 c82 -40 118 -152 74 -231 -43 -76 -128 -108 -205 -79 -51 20
-79 47 -101 100 -58 137 95 274 232 210z m1054 -4 c93 -48 117 -176 48 -254
-64 -73 -167 -83 -236 -23 -65 58 -80 130 -40 207 41 83 142 113 228 70z
m1032 6 c95 -39 131 -171 70 -255 -30 -42 -101 -73 -151 -68 -89 9 -152 80
-152 172 0 121 119 199 233 151z m1075 -13 c48 -35 72 -81 72 -135 0 -64 -24
-114 -69 -143 -102 -67 -230 -20 -261 95 -20 74 24 165 95 196 42 20 129 13
163 -13z"/>
</g>
</svg>
